<mxfile host="app.diagrams.net" agent="Mozilla/5.0 (Windows NT 10.0; Win64; x64) AppleWebKit/537.36 (KHTML, like Gecko) Chrome/134.0.0.0 Safari/537.36" version="26.1.0" pages="3">
  <diagram name="TOBE" id="cgs9fcY_MdLF6vxdl5zY">
    <mxGraphModel dx="3187" dy="1640" grid="1" gridSize="10" guides="1" tooltips="1" connect="1" arrows="1" fold="1" page="1" pageScale="1" pageWidth="827" pageHeight="1169" math="0" shadow="0">
      <root>
        <mxCell id="0" />
        <mxCell id="1" parent="0" />
        <mxCell id="d-VJ-QEy7T55_uepb2rt-17" value="Coletor" style="swimlane;horizontal=0;whiteSpace=wrap;html=1;" parent="1" vertex="1">
          <mxGeometry x="990" y="960" width="870" height="200" as="geometry" />
        </mxCell>
        <mxCell id="HVkNpmRQjvonwfQjf_y9-4" style="edgeStyle=orthogonalEdgeStyle;rounded=0;orthogonalLoop=1;jettySize=auto;html=1;" edge="1" parent="d-VJ-QEy7T55_uepb2rt-17" source="d-VJ-QEy7T55_uepb2rt-31">
          <mxGeometry relative="1" as="geometry">
            <mxPoint x="280" y="99.99999999999977" as="targetPoint" />
          </mxGeometry>
        </mxCell>
        <mxCell id="d-VJ-QEy7T55_uepb2rt-31" value="Realizar coleta" style="rounded=1;whiteSpace=wrap;html=1;" parent="d-VJ-QEy7T55_uepb2rt-17" vertex="1">
          <mxGeometry x="90" y="70" width="120" height="60" as="geometry" />
        </mxCell>
        <mxCell id="HVkNpmRQjvonwfQjf_y9-8" style="edgeStyle=orthogonalEdgeStyle;rounded=0;orthogonalLoop=1;jettySize=auto;html=1;" edge="1" parent="d-VJ-QEy7T55_uepb2rt-17" source="HVkNpmRQjvonwfQjf_y9-5">
          <mxGeometry relative="1" as="geometry">
            <mxPoint x="460" y="100" as="targetPoint" />
          </mxGeometry>
        </mxCell>
        <mxCell id="HVkNpmRQjvonwfQjf_y9-5" value="coleta finalizada?" style="rhombus;whiteSpace=wrap;html=1;fillColor=#fff2cc;strokeColor=#d6b656;" vertex="1" parent="d-VJ-QEy7T55_uepb2rt-17">
          <mxGeometry x="283" y="60" width="80" height="80" as="geometry" />
        </mxCell>
        <mxCell id="HVkNpmRQjvonwfQjf_y9-11" value="" style="ellipse;whiteSpace=wrap;html=1;aspect=fixed;fillColor=#f8cecc;strokeColor=#b85450;" vertex="1" parent="d-VJ-QEy7T55_uepb2rt-17">
          <mxGeometry x="460" y="88" width="24" height="24" as="geometry" />
        </mxCell>
        <mxCell id="HVkNpmRQjvonwfQjf_y9-7" value="Não" style="text;html=1;align=center;verticalAlign=middle;whiteSpace=wrap;rounded=0;" vertex="1" parent="d-VJ-QEy7T55_uepb2rt-17">
          <mxGeometry x="310" y="140" width="60" height="30" as="geometry" />
        </mxCell>
        <mxCell id="HVkNpmRQjvonwfQjf_y9-9" value="Sim" style="text;html=1;align=center;verticalAlign=middle;resizable=0;points=[];autosize=1;strokeColor=none;fillColor=none;" vertex="1" parent="d-VJ-QEy7T55_uepb2rt-17">
          <mxGeometry x="384" y="70" width="40" height="30" as="geometry" />
        </mxCell>
        <mxCell id="d-VJ-QEy7T55_uepb2rt-18" value="Modelo (Sistema)" style="swimlane;horizontal=0;whiteSpace=wrap;html=1;" parent="1" vertex="1">
          <mxGeometry x="990" y="1360" width="870" height="200" as="geometry" />
        </mxCell>
        <mxCell id="d-VJ-QEy7T55_uepb2rt-28" value="Gerar rota otimizada de coleta" style="rounded=1;whiteSpace=wrap;html=1;" parent="d-VJ-QEy7T55_uepb2rt-18" vertex="1">
          <mxGeometry x="90" y="70" width="120" height="60" as="geometry" />
        </mxCell>
        <mxCell id="d-VJ-QEy7T55_uepb2rt-21" value="Aplicativo" style="swimlane;horizontal=0;whiteSpace=wrap;html=1;" parent="1" vertex="1">
          <mxGeometry x="88" y="1410" width="870" height="210" as="geometry" />
        </mxCell>
        <mxCell id="d-VJ-QEy7T55_uepb2rt-53" value="Recebimento de formulário" style="rounded=1;whiteSpace=wrap;html=1;" parent="d-VJ-QEy7T55_uepb2rt-21" vertex="1">
          <mxGeometry x="310" y="91" width="120" height="60" as="geometry" />
        </mxCell>
        <mxCell id="d-VJ-QEy7T55_uepb2rt-22" value="Cidadão (Aplicativo)" style="swimlane;horizontal=0;whiteSpace=wrap;html=1;" parent="1" vertex="1">
          <mxGeometry x="88" y="1620" width="870" height="200" as="geometry" />
        </mxCell>
        <mxCell id="d-VJ-QEy7T55_uepb2rt-47" style="edgeStyle=orthogonalEdgeStyle;rounded=0;orthogonalLoop=1;jettySize=auto;html=1;entryX=0;entryY=0.5;entryDx=0;entryDy=0;" parent="d-VJ-QEy7T55_uepb2rt-22" source="d-VJ-QEy7T55_uepb2rt-45" target="d-VJ-QEy7T55_uepb2rt-46" edge="1">
          <mxGeometry relative="1" as="geometry" />
        </mxCell>
        <mxCell id="d-VJ-QEy7T55_uepb2rt-45" value="" style="ellipse;whiteSpace=wrap;html=1;aspect=fixed;fillColor=#d5e8d4;strokeColor=#82b366;" parent="d-VJ-QEy7T55_uepb2rt-22" vertex="1">
          <mxGeometry x="290" y="91" width="40" height="40" as="geometry" />
        </mxCell>
        <mxCell id="d-VJ-QEy7T55_uepb2rt-50" style="edgeStyle=orthogonalEdgeStyle;rounded=0;orthogonalLoop=1;jettySize=auto;html=1;" parent="d-VJ-QEy7T55_uepb2rt-22" source="d-VJ-QEy7T55_uepb2rt-46" edge="1">
          <mxGeometry relative="1" as="geometry">
            <mxPoint x="580" y="111" as="targetPoint" />
          </mxGeometry>
        </mxCell>
        <mxCell id="d-VJ-QEy7T55_uepb2rt-46" value="Acesso ao aplicativo" style="rounded=1;whiteSpace=wrap;html=1;" parent="d-VJ-QEy7T55_uepb2rt-22" vertex="1">
          <mxGeometry x="390" y="81" width="120" height="60" as="geometry" />
        </mxCell>
        <mxCell id="d-VJ-QEy7T55_uepb2rt-51" value="Envio de formulário" style="rounded=1;whiteSpace=wrap;html=1;" parent="d-VJ-QEy7T55_uepb2rt-22" vertex="1">
          <mxGeometry x="580" y="81" width="120" height="60" as="geometry" />
        </mxCell>
        <mxCell id="d-VJ-QEy7T55_uepb2rt-43" value="&lt;font style=&quot;font-size: 16px;&quot;&gt;Coleta de Lixo&lt;/font&gt;" style="text;html=1;align=center;verticalAlign=middle;whiteSpace=wrap;rounded=0;" parent="1" vertex="1">
          <mxGeometry x="1355" y="910" width="140" height="30" as="geometry" />
        </mxCell>
        <mxCell id="d-VJ-QEy7T55_uepb2rt-44" value="&lt;font style=&quot;font-size: 17px;&quot;&gt;Feedback&lt;/font&gt;" style="text;html=1;align=center;verticalAlign=middle;whiteSpace=wrap;rounded=0;" parent="1" vertex="1">
          <mxGeometry x="443" y="1150" width="60" height="30" as="geometry" />
        </mxCell>
        <mxCell id="d-VJ-QEy7T55_uepb2rt-55" value="Modelo (Sistema)" style="swimlane;horizontal=0;whiteSpace=wrap;html=1;startSize=23;" parent="1" vertex="1">
          <mxGeometry x="88" y="1210" width="870" height="200" as="geometry" />
        </mxCell>
        <mxCell id="d-VJ-QEy7T55_uepb2rt-78" style="edgeStyle=orthogonalEdgeStyle;rounded=0;orthogonalLoop=1;jettySize=auto;html=1;entryX=0;entryY=0.5;entryDx=0;entryDy=0;" parent="d-VJ-QEy7T55_uepb2rt-55" source="d-VJ-QEy7T55_uepb2rt-59" target="d-VJ-QEy7T55_uepb2rt-77" edge="1">
          <mxGeometry relative="1" as="geometry" />
        </mxCell>
        <mxCell id="d-VJ-QEy7T55_uepb2rt-59" value="Treinar modelo" style="rounded=1;whiteSpace=wrap;html=1;" parent="d-VJ-QEy7T55_uepb2rt-55" vertex="1">
          <mxGeometry x="170" y="75" width="120" height="60" as="geometry" />
        </mxCell>
        <mxCell id="d-VJ-QEy7T55_uepb2rt-76" style="edgeStyle=orthogonalEdgeStyle;rounded=0;orthogonalLoop=1;jettySize=auto;html=1;entryX=0;entryY=0.5;entryDx=0;entryDy=0;" parent="d-VJ-QEy7T55_uepb2rt-55" source="d-VJ-QEy7T55_uepb2rt-75" target="d-VJ-QEy7T55_uepb2rt-59" edge="1">
          <mxGeometry relative="1" as="geometry" />
        </mxCell>
        <mxCell id="d-VJ-QEy7T55_uepb2rt-75" value="" style="ellipse;whiteSpace=wrap;html=1;aspect=fixed;fillColor=#d5e8d4;strokeColor=#82b366;" parent="d-VJ-QEy7T55_uepb2rt-55" vertex="1">
          <mxGeometry x="80" y="85" width="40" height="40" as="geometry" />
        </mxCell>
        <mxCell id="d-VJ-QEy7T55_uepb2rt-79" style="edgeStyle=orthogonalEdgeStyle;rounded=0;orthogonalLoop=1;jettySize=auto;html=1;entryX=0;entryY=0.5;entryDx=0;entryDy=0;" parent="d-VJ-QEy7T55_uepb2rt-55" source="d-VJ-QEy7T55_uepb2rt-77" target="d-VJ-QEy7T55_uepb2rt-57" edge="1">
          <mxGeometry relative="1" as="geometry" />
        </mxCell>
        <mxCell id="dIDU0ldeqhqFMtYOlS6n-1" style="edgeStyle=orthogonalEdgeStyle;rounded=0;orthogonalLoop=1;jettySize=auto;html=1;entryX=0.5;entryY=1;entryDx=0;entryDy=0;" parent="d-VJ-QEy7T55_uepb2rt-55" source="d-VJ-QEy7T55_uepb2rt-77" target="d-VJ-QEy7T55_uepb2rt-59" edge="1">
          <mxGeometry relative="1" as="geometry">
            <Array as="points">
              <mxPoint x="350" y="165" />
              <mxPoint x="230" y="165" />
            </Array>
          </mxGeometry>
        </mxCell>
        <mxCell id="d-VJ-QEy7T55_uepb2rt-77" value="Formulario?" style="rhombus;whiteSpace=wrap;html=1;fillColor=#fff2cc;strokeColor=#d6b656;" parent="d-VJ-QEy7T55_uepb2rt-55" vertex="1">
          <mxGeometry x="330" y="65" width="80" height="80" as="geometry" />
        </mxCell>
        <mxCell id="d-VJ-QEy7T55_uepb2rt-80" style="edgeStyle=orthogonalEdgeStyle;rounded=0;orthogonalLoop=1;jettySize=auto;html=1;entryX=0.5;entryY=0;entryDx=0;entryDy=0;" parent="d-VJ-QEy7T55_uepb2rt-55" source="d-VJ-QEy7T55_uepb2rt-57" target="d-VJ-QEy7T55_uepb2rt-59" edge="1">
          <mxGeometry relative="1" as="geometry">
            <Array as="points">
              <mxPoint x="540" y="55" />
              <mxPoint x="230" y="55" />
            </Array>
          </mxGeometry>
        </mxCell>
        <mxCell id="d-VJ-QEy7T55_uepb2rt-57" value="Tratar dados do cliente" style="rounded=1;whiteSpace=wrap;html=1;" parent="d-VJ-QEy7T55_uepb2rt-55" vertex="1">
          <mxGeometry x="480" y="80" width="120" height="50" as="geometry" />
        </mxCell>
        <mxCell id="dIDU0ldeqhqFMtYOlS6n-2" value="Não" style="text;html=1;align=center;verticalAlign=middle;whiteSpace=wrap;rounded=0;" parent="d-VJ-QEy7T55_uepb2rt-55" vertex="1">
          <mxGeometry x="230" y="170" width="60" height="30" as="geometry" />
        </mxCell>
        <mxCell id="dIDU0ldeqhqFMtYOlS6n-3" value="Sim" style="text;html=1;align=center;verticalAlign=middle;whiteSpace=wrap;rounded=0;" parent="d-VJ-QEy7T55_uepb2rt-55" vertex="1">
          <mxGeometry x="305" y="31" width="60" height="30" as="geometry" />
        </mxCell>
        <mxCell id="d-VJ-QEy7T55_uepb2rt-62" value="" style="rounded=0;whiteSpace=wrap;html=1;" parent="1" vertex="1">
          <mxGeometry x="160" y="960" width="730" height="160" as="geometry" />
        </mxCell>
        <mxCell id="d-VJ-QEy7T55_uepb2rt-63" value="Coleta de lixo" style="rounded=1;whiteSpace=wrap;html=1;" parent="1" vertex="1">
          <mxGeometry x="613" y="1010" width="120" height="60" as="geometry" />
        </mxCell>
        <mxCell id="d-VJ-QEy7T55_uepb2rt-65" style="edgeStyle=orthogonalEdgeStyle;rounded=0;orthogonalLoop=1;jettySize=auto;html=1;" parent="1" source="d-VJ-QEy7T55_uepb2rt-64" target="d-VJ-QEy7T55_uepb2rt-63" edge="1">
          <mxGeometry relative="1" as="geometry" />
        </mxCell>
        <mxCell id="d-VJ-QEy7T55_uepb2rt-64" value="Requisição do governo" style="rhombus;whiteSpace=wrap;html=1;fillColor=#fff2cc;strokeColor=#d6b656;" parent="1" vertex="1">
          <mxGeometry x="483" y="1000" width="80" height="80" as="geometry" />
        </mxCell>
        <mxCell id="d-VJ-QEy7T55_uepb2rt-68" value="" style="edgeStyle=orthogonalEdgeStyle;rounded=0;orthogonalLoop=1;jettySize=auto;html=1;" parent="1" source="d-VJ-QEy7T55_uepb2rt-67" target="d-VJ-QEy7T55_uepb2rt-64" edge="1">
          <mxGeometry relative="1" as="geometry" />
        </mxCell>
        <mxCell id="d-VJ-QEy7T55_uepb2rt-67" value="Treinamento" style="rounded=1;whiteSpace=wrap;html=1;" parent="1" vertex="1">
          <mxGeometry x="303" y="1010" width="120" height="60" as="geometry" />
        </mxCell>
        <mxCell id="d-VJ-QEy7T55_uepb2rt-69" style="edgeStyle=orthogonalEdgeStyle;rounded=0;orthogonalLoop=1;jettySize=auto;html=1;entryX=0.409;entryY=0.017;entryDx=0;entryDy=0;entryPerimeter=0;" parent="1" source="d-VJ-QEy7T55_uepb2rt-64" target="d-VJ-QEy7T55_uepb2rt-67" edge="1">
          <mxGeometry relative="1" as="geometry">
            <Array as="points">
              <mxPoint x="523" y="990" />
              <mxPoint x="352" y="990" />
            </Array>
          </mxGeometry>
        </mxCell>
        <mxCell id="d-VJ-QEy7T55_uepb2rt-70" value="Não" style="text;html=1;align=center;verticalAlign=middle;whiteSpace=wrap;rounded=0;" parent="1" vertex="1">
          <mxGeometry x="403" y="960" width="60" height="30" as="geometry" />
        </mxCell>
        <mxCell id="d-VJ-QEy7T55_uepb2rt-72" value="" style="edgeStyle=orthogonalEdgeStyle;rounded=0;orthogonalLoop=1;jettySize=auto;html=1;" parent="1" source="d-VJ-QEy7T55_uepb2rt-71" target="d-VJ-QEy7T55_uepb2rt-67" edge="1">
          <mxGeometry relative="1" as="geometry" />
        </mxCell>
        <mxCell id="d-VJ-QEy7T55_uepb2rt-71" value="" style="ellipse;whiteSpace=wrap;html=1;aspect=fixed;fillColor=#d5e8d4;strokeColor=#82b366;" parent="1" vertex="1">
          <mxGeometry x="203" y="1025" width="30" height="30" as="geometry" />
        </mxCell>
        <mxCell id="d-VJ-QEy7T55_uepb2rt-73" value="&lt;font style=&quot;font-size: 15px;&quot;&gt;Fluxo&lt;/font&gt;" style="text;html=1;align=center;verticalAlign=middle;whiteSpace=wrap;rounded=0;" parent="1" vertex="1">
          <mxGeometry x="493" y="910" width="60" height="30" as="geometry" />
        </mxCell>
        <mxCell id="d-VJ-QEy7T55_uepb2rt-74" value="Sim" style="text;html=1;align=center;verticalAlign=middle;whiteSpace=wrap;rounded=0;" parent="1" vertex="1">
          <mxGeometry x="553" y="1010" width="60" height="30" as="geometry" />
        </mxCell>
        <mxCell id="d-VJ-QEy7T55_uepb2rt-81" style="edgeStyle=orthogonalEdgeStyle;rounded=0;orthogonalLoop=1;jettySize=auto;html=1;entryX=0.5;entryY=1;entryDx=0;entryDy=0;" parent="1" source="d-VJ-QEy7T55_uepb2rt-53" target="d-VJ-QEy7T55_uepb2rt-77" edge="1">
          <mxGeometry relative="1" as="geometry" />
        </mxCell>
        <mxCell id="d-VJ-QEy7T55_uepb2rt-82" style="edgeStyle=orthogonalEdgeStyle;rounded=0;orthogonalLoop=1;jettySize=auto;html=1;entryX=0.572;entryY=1.039;entryDx=0;entryDy=0;entryPerimeter=0;" parent="1" source="d-VJ-QEy7T55_uepb2rt-51" target="d-VJ-QEy7T55_uepb2rt-53" edge="1">
          <mxGeometry relative="1" as="geometry">
            <Array as="points">
              <mxPoint x="728" y="1661" />
              <mxPoint x="467" y="1661" />
            </Array>
          </mxGeometry>
        </mxCell>
        <mxCell id="iBNbjOJgGYLXGwrJgdYS-1" value="Aplicativo" style="swimlane;horizontal=0;whiteSpace=wrap;html=1;startSize=23;" vertex="1" parent="1">
          <mxGeometry x="990" y="1560" width="870" height="201" as="geometry" />
        </mxCell>
        <mxCell id="iBNbjOJgGYLXGwrJgdYS-10" value="Compilar parâmetros" style="rounded=1;whiteSpace=wrap;html=1;" vertex="1" parent="iBNbjOJgGYLXGwrJgdYS-1">
          <mxGeometry x="324" y="70.5" width="120" height="60" as="geometry" />
        </mxCell>
        <mxCell id="iBNbjOJgGYLXGwrJgdYS-17" value="Informar rota de coleta" style="rounded=1;whiteSpace=wrap;html=1;" vertex="1" parent="iBNbjOJgGYLXGwrJgdYS-1">
          <mxGeometry x="550" y="70.5" width="120" height="60" as="geometry" />
        </mxCell>
        <mxCell id="d-VJ-QEy7T55_uepb2rt-20" value="Governo" style="swimlane;horizontal=0;whiteSpace=wrap;html=1;" parent="1" vertex="1">
          <mxGeometry x="990" y="1761" width="870" height="200" as="geometry" />
        </mxCell>
        <mxCell id="iBNbjOJgGYLXGwrJgdYS-27" style="edgeStyle=orthogonalEdgeStyle;rounded=0;orthogonalLoop=1;jettySize=auto;html=1;" edge="1" parent="d-VJ-QEy7T55_uepb2rt-20" source="d-VJ-QEy7T55_uepb2rt-25">
          <mxGeometry relative="1" as="geometry">
            <mxPoint x="300" y="100" as="targetPoint" />
          </mxGeometry>
        </mxCell>
        <mxCell id="d-VJ-QEy7T55_uepb2rt-25" value="Acessar o aplicativo (Governo)" style="rounded=1;whiteSpace=wrap;html=1;" parent="d-VJ-QEy7T55_uepb2rt-20" vertex="1">
          <mxGeometry x="90" y="70" width="120" height="60" as="geometry" />
        </mxCell>
        <mxCell id="d-VJ-QEy7T55_uepb2rt-27" style="edgeStyle=orthogonalEdgeStyle;rounded=0;orthogonalLoop=1;jettySize=auto;html=1;" parent="d-VJ-QEy7T55_uepb2rt-20" source="d-VJ-QEy7T55_uepb2rt-24" target="d-VJ-QEy7T55_uepb2rt-25" edge="1">
          <mxGeometry relative="1" as="geometry" />
        </mxCell>
        <mxCell id="d-VJ-QEy7T55_uepb2rt-24" value="" style="ellipse;whiteSpace=wrap;html=1;aspect=fixed;fillColor=#d5e8d4;strokeColor=#82b366;" parent="d-VJ-QEy7T55_uepb2rt-20" vertex="1">
          <mxGeometry x="40" y="85" width="30" height="30" as="geometry" />
        </mxCell>
        <mxCell id="iBNbjOJgGYLXGwrJgdYS-7" value="Solicitar coleta" style="rounded=1;whiteSpace=wrap;html=1;" vertex="1" parent="d-VJ-QEy7T55_uepb2rt-20">
          <mxGeometry x="300" y="70" width="120" height="60" as="geometry" />
        </mxCell>
        <mxCell id="iBNbjOJgGYLXGwrJgdYS-11" style="edgeStyle=orthogonalEdgeStyle;rounded=0;orthogonalLoop=1;jettySize=auto;html=1;entryX=0.5;entryY=1;entryDx=0;entryDy=0;" edge="1" parent="1" source="iBNbjOJgGYLXGwrJgdYS-10" target="d-VJ-QEy7T55_uepb2rt-28">
          <mxGeometry relative="1" as="geometry" />
        </mxCell>
        <mxCell id="iBNbjOJgGYLXGwrJgdYS-12" value="Waze" style="swimlane;horizontal=0;whiteSpace=wrap;html=1;" vertex="1" parent="1">
          <mxGeometry x="990" y="1160" width="870" height="200" as="geometry" />
        </mxCell>
        <mxCell id="iBNbjOJgGYLXGwrJgdYS-13" value="Mapear rota" style="rounded=1;whiteSpace=wrap;html=1;" vertex="1" parent="iBNbjOJgGYLXGwrJgdYS-12">
          <mxGeometry x="90" y="70" width="120" height="60" as="geometry" />
        </mxCell>
        <mxCell id="iBNbjOJgGYLXGwrJgdYS-15" style="edgeStyle=orthogonalEdgeStyle;rounded=0;orthogonalLoop=1;jettySize=auto;html=1;entryX=0.5;entryY=1;entryDx=0;entryDy=0;" edge="1" parent="1" source="d-VJ-QEy7T55_uepb2rt-28" target="iBNbjOJgGYLXGwrJgdYS-13">
          <mxGeometry relative="1" as="geometry" />
        </mxCell>
        <mxCell id="iBNbjOJgGYLXGwrJgdYS-16" style="edgeStyle=orthogonalEdgeStyle;rounded=0;orthogonalLoop=1;jettySize=auto;html=1;entryX=0.5;entryY=1;entryDx=0;entryDy=0;" edge="1" parent="1" source="iBNbjOJgGYLXGwrJgdYS-13" target="d-VJ-QEy7T55_uepb2rt-31">
          <mxGeometry relative="1" as="geometry" />
        </mxCell>
        <mxCell id="iBNbjOJgGYLXGwrJgdYS-28" style="edgeStyle=orthogonalEdgeStyle;rounded=0;orthogonalLoop=1;jettySize=auto;html=1;entryX=0.3;entryY=1.008;entryDx=0;entryDy=0;entryPerimeter=0;" edge="1" parent="1" source="iBNbjOJgGYLXGwrJgdYS-7" target="iBNbjOJgGYLXGwrJgdYS-10">
          <mxGeometry relative="1" as="geometry" />
        </mxCell>
        <mxCell id="HVkNpmRQjvonwfQjf_y9-6" style="edgeStyle=orthogonalEdgeStyle;rounded=0;orthogonalLoop=1;jettySize=auto;html=1;entryX=0.358;entryY=0.005;entryDx=0;entryDy=0;entryPerimeter=0;" edge="1" parent="1" source="HVkNpmRQjvonwfQjf_y9-5" target="iBNbjOJgGYLXGwrJgdYS-17">
          <mxGeometry relative="1" as="geometry">
            <Array as="points">
              <mxPoint x="1313" y="1471" />
              <mxPoint x="1583" y="1471" />
            </Array>
          </mxGeometry>
        </mxCell>
        <mxCell id="HVkNpmRQjvonwfQjf_y9-13" style="edgeStyle=orthogonalEdgeStyle;rounded=0;orthogonalLoop=1;jettySize=auto;html=1;" edge="1" parent="1" source="iBNbjOJgGYLXGwrJgdYS-17" target="d-VJ-QEy7T55_uepb2rt-31">
          <mxGeometry relative="1" as="geometry">
            <Array as="points">
              <mxPoint x="1650" y="1260" />
              <mxPoint x="1650" y="1001" />
              <mxPoint x="1140" y="1001" />
            </Array>
          </mxGeometry>
        </mxCell>
      </root>
    </mxGraphModel>
  </diagram>
  <diagram id="uuC1ExW2EnVE1ZP-EElV" name="ASIS">
    <mxGraphModel dx="1426" dy="781" grid="1" gridSize="10" guides="1" tooltips="1" connect="1" arrows="1" fold="1" page="1" pageScale="1" pageWidth="827" pageHeight="1169" math="0" shadow="0">
      <root>
        <mxCell id="0" />
        <mxCell id="1" parent="0" />
        <mxCell id="wTCXj8QKER4XCNnipOte-1" value="Coletor" style="swimlane;horizontal=0;whiteSpace=wrap;html=1;" vertex="1" parent="1">
          <mxGeometry x="60" y="80" width="740" height="200" as="geometry" />
        </mxCell>
        <mxCell id="wTCXj8QKER4XCNnipOte-2" style="edgeStyle=orthogonalEdgeStyle;rounded=0;orthogonalLoop=1;jettySize=auto;html=1;entryX=0;entryY=0.5;entryDx=0;entryDy=0;" edge="1" parent="wTCXj8QKER4XCNnipOte-1" source="wTCXj8QKER4XCNnipOte-3" target="wTCXj8QKER4XCNnipOte-5">
          <mxGeometry relative="1" as="geometry" />
        </mxCell>
        <mxCell id="wTCXj8QKER4XCNnipOte-3" value="Deslocar até a area de coleta" style="rounded=1;whiteSpace=wrap;html=1;" vertex="1" parent="wTCXj8QKER4XCNnipOte-1">
          <mxGeometry x="130" y="80" width="120" height="60" as="geometry" />
        </mxCell>
        <mxCell id="wTCXj8QKER4XCNnipOte-4" style="edgeStyle=orthogonalEdgeStyle;rounded=0;orthogonalLoop=1;jettySize=auto;html=1;entryX=0;entryY=0.5;entryDx=0;entryDy=0;" edge="1" parent="wTCXj8QKER4XCNnipOte-1" source="wTCXj8QKER4XCNnipOte-5" target="wTCXj8QKER4XCNnipOte-6">
          <mxGeometry relative="1" as="geometry" />
        </mxCell>
        <mxCell id="wTCXj8QKER4XCNnipOte-5" value="Realizar a coleta de lixo" style="rounded=1;whiteSpace=wrap;html=1;" vertex="1" parent="wTCXj8QKER4XCNnipOte-1">
          <mxGeometry x="320" y="80" width="120" height="60" as="geometry" />
        </mxCell>
        <mxCell id="wTCXj8QKER4XCNnipOte-6" value="Enviar dados para coleta" style="rounded=1;whiteSpace=wrap;html=1;" vertex="1" parent="wTCXj8QKER4XCNnipOte-1">
          <mxGeometry x="490" y="80" width="120" height="60" as="geometry" />
        </mxCell>
        <mxCell id="wTCXj8QKER4XCNnipOte-7" value="Governo" style="swimlane;horizontal=0;whiteSpace=wrap;html=1;" vertex="1" parent="1">
          <mxGeometry x="60" y="280" width="740" height="200" as="geometry" />
        </mxCell>
        <mxCell id="wTCXj8QKER4XCNnipOte-8" value="Enviar pontos de coleta de lixo" style="rounded=1;whiteSpace=wrap;html=1;" vertex="1" parent="wTCXj8QKER4XCNnipOte-7">
          <mxGeometry x="130" y="65" width="120" height="60" as="geometry" />
        </mxCell>
        <mxCell id="wTCXj8QKER4XCNnipOte-9" value="" style="edgeStyle=orthogonalEdgeStyle;rounded=0;orthogonalLoop=1;jettySize=auto;html=1;" edge="1" parent="wTCXj8QKER4XCNnipOte-7" source="wTCXj8QKER4XCNnipOte-10" target="wTCXj8QKER4XCNnipOte-8">
          <mxGeometry relative="1" as="geometry" />
        </mxCell>
        <mxCell id="wTCXj8QKER4XCNnipOte-10" value="" style="ellipse;whiteSpace=wrap;html=1;aspect=fixed;" vertex="1" parent="wTCXj8QKER4XCNnipOte-7">
          <mxGeometry x="50" y="80" width="30" height="30" as="geometry" />
        </mxCell>
        <mxCell id="wTCXj8QKER4XCNnipOte-11" value="Armazenar e atualizar dados de coleta de determinada região" style="rounded=1;whiteSpace=wrap;html=1;" vertex="1" parent="wTCXj8QKER4XCNnipOte-7">
          <mxGeometry x="490" y="65" width="120" height="60" as="geometry" />
        </mxCell>
        <mxCell id="wTCXj8QKER4XCNnipOte-12" style="edgeStyle=orthogonalEdgeStyle;rounded=0;orthogonalLoop=1;jettySize=auto;html=1;entryX=0.5;entryY=1;entryDx=0;entryDy=0;" edge="1" parent="1" source="wTCXj8QKER4XCNnipOte-8" target="wTCXj8QKER4XCNnipOte-3">
          <mxGeometry relative="1" as="geometry" />
        </mxCell>
        <mxCell id="wTCXj8QKER4XCNnipOte-13" style="edgeStyle=orthogonalEdgeStyle;rounded=0;orthogonalLoop=1;jettySize=auto;html=1;entryX=0.5;entryY=0;entryDx=0;entryDy=0;" edge="1" parent="1" source="wTCXj8QKER4XCNnipOte-6" target="wTCXj8QKER4XCNnipOte-11">
          <mxGeometry relative="1" as="geometry" />
        </mxCell>
      </root>
    </mxGraphModel>
  </diagram>
  <diagram id="k8DME1YZ3myZ3cDt4jJw" name="CASOSDEUSO">
    <mxGraphModel dx="2037" dy="1116" grid="1" gridSize="10" guides="1" tooltips="1" connect="1" arrows="1" fold="1" page="1" pageScale="1" pageWidth="827" pageHeight="1169" math="0" shadow="0">
      <root>
        <mxCell id="0" />
        <mxCell id="1" parent="0" />
        <mxCell id="48PQxRek5Wm6yvdUXE-k-1" value="Diagrama de Casos de Uso" style="swimlane;whiteSpace=wrap;html=1;" vertex="1" parent="1">
          <mxGeometry x="190" y="20" width="420" height="940" as="geometry" />
        </mxCell>
        <mxCell id="48PQxRek5Wm6yvdUXE-k-2" value="UC01:Enviar requisição de coleta" style="rounded=1;whiteSpace=wrap;html=1;" vertex="1" parent="48PQxRek5Wm6yvdUXE-k-1">
          <mxGeometry x="150" y="110" width="120" height="60" as="geometry" />
        </mxCell>
        <mxCell id="48PQxRek5Wm6yvdUXE-k-4" value="UC02:Gerar rota otimizada de coleta" style="rounded=1;whiteSpace=wrap;html=1;" vertex="1" parent="48PQxRek5Wm6yvdUXE-k-1">
          <mxGeometry x="150" y="210" width="120" height="60" as="geometry" />
        </mxCell>
        <mxCell id="48PQxRek5Wm6yvdUXE-k-5" value="UC03:Recebimento de rota de coleta" style="rounded=1;whiteSpace=wrap;html=1;" vertex="1" parent="48PQxRek5Wm6yvdUXE-k-1">
          <mxGeometry x="150" y="300" width="120" height="60" as="geometry" />
        </mxCell>
        <mxCell id="48PQxRek5Wm6yvdUXE-k-6" value="UC04:Realizar rota de coleta" style="rounded=1;whiteSpace=wrap;html=1;" vertex="1" parent="48PQxRek5Wm6yvdUXE-k-1">
          <mxGeometry x="150" y="390" width="120" height="60" as="geometry" />
        </mxCell>
        <mxCell id="48PQxRek5Wm6yvdUXE-k-7" value="UC05:Recolher de lixo" style="rounded=1;whiteSpace=wrap;html=1;" vertex="1" parent="48PQxRek5Wm6yvdUXE-k-1">
          <mxGeometry x="150" y="480" width="120" height="60" as="geometry" />
        </mxCell>
        <mxCell id="48PQxRek5Wm6yvdUXE-k-8" value="UC06:Acompanhamento de coleta de lixo" style="rounded=1;whiteSpace=wrap;html=1;" vertex="1" parent="48PQxRek5Wm6yvdUXE-k-1">
          <mxGeometry x="150" y="570" width="120" height="60" as="geometry" />
        </mxCell>
        <mxCell id="48PQxRek5Wm6yvdUXE-k-14" value="UC07:Acesso ao aplicativo" style="rounded=1;whiteSpace=wrap;html=1;" vertex="1" parent="48PQxRek5Wm6yvdUXE-k-1">
          <mxGeometry x="150" y="710" width="120" height="60" as="geometry" />
        </mxCell>
        <mxCell id="48PQxRek5Wm6yvdUXE-k-15" value="UC08:Envio de formulário" style="rounded=1;whiteSpace=wrap;html=1;" vertex="1" parent="48PQxRek5Wm6yvdUXE-k-1">
          <mxGeometry x="150" y="800" width="120" height="60" as="geometry" />
        </mxCell>
        <mxCell id="48PQxRek5Wm6yvdUXE-k-12" style="edgeStyle=orthogonalEdgeStyle;rounded=0;orthogonalLoop=1;jettySize=auto;html=1;entryX=0;entryY=0.5;entryDx=0;entryDy=0;" edge="1" parent="1" source="48PQxRek5Wm6yvdUXE-k-9" target="48PQxRek5Wm6yvdUXE-k-2">
          <mxGeometry relative="1" as="geometry">
            <Array as="points">
              <mxPoint x="160" y="350" />
              <mxPoint x="160" y="160" />
            </Array>
          </mxGeometry>
        </mxCell>
        <mxCell id="48PQxRek5Wm6yvdUXE-k-13" style="edgeStyle=orthogonalEdgeStyle;rounded=0;orthogonalLoop=1;jettySize=auto;html=1;entryX=0;entryY=0.5;entryDx=0;entryDy=0;" edge="1" parent="1" source="48PQxRek5Wm6yvdUXE-k-9" target="48PQxRek5Wm6yvdUXE-k-8">
          <mxGeometry relative="1" as="geometry">
            <Array as="points">
              <mxPoint x="160" y="350" />
              <mxPoint x="160" y="620" />
            </Array>
          </mxGeometry>
        </mxCell>
        <mxCell id="48PQxRek5Wm6yvdUXE-k-9" value="Governo" style="shape=umlActor;verticalLabelPosition=bottom;verticalAlign=top;html=1;outlineConnect=0;" vertex="1" parent="1">
          <mxGeometry x="90" y="320" width="30" height="60" as="geometry" />
        </mxCell>
        <mxCell id="48PQxRek5Wm6yvdUXE-k-23" style="edgeStyle=orthogonalEdgeStyle;rounded=0;orthogonalLoop=1;jettySize=auto;html=1;entryX=0;entryY=0.5;entryDx=0;entryDy=0;" edge="1" parent="1" source="48PQxRek5Wm6yvdUXE-k-20" target="48PQxRek5Wm6yvdUXE-k-5">
          <mxGeometry relative="1" as="geometry" />
        </mxCell>
        <mxCell id="48PQxRek5Wm6yvdUXE-k-24" style="edgeStyle=orthogonalEdgeStyle;rounded=0;orthogonalLoop=1;jettySize=auto;html=1;entryX=0;entryY=0.5;entryDx=0;entryDy=0;" edge="1" parent="1" source="48PQxRek5Wm6yvdUXE-k-20" target="48PQxRek5Wm6yvdUXE-k-6">
          <mxGeometry relative="1" as="geometry" />
        </mxCell>
        <mxCell id="48PQxRek5Wm6yvdUXE-k-25" style="edgeStyle=orthogonalEdgeStyle;rounded=0;orthogonalLoop=1;jettySize=auto;html=1;entryX=0;entryY=0.5;entryDx=0;entryDy=0;" edge="1" parent="1" source="48PQxRek5Wm6yvdUXE-k-20" target="48PQxRek5Wm6yvdUXE-k-7">
          <mxGeometry relative="1" as="geometry" />
        </mxCell>
        <mxCell id="48PQxRek5Wm6yvdUXE-k-20" value="Coletor" style="shape=umlActor;verticalLabelPosition=bottom;verticalAlign=top;html=1;outlineConnect=0;" vertex="1" parent="1">
          <mxGeometry x="90" y="670" width="30" height="60" as="geometry" />
        </mxCell>
        <mxCell id="48PQxRek5Wm6yvdUXE-k-27" style="edgeStyle=orthogonalEdgeStyle;rounded=0;orthogonalLoop=1;jettySize=auto;html=1;entryX=1;entryY=0.5;entryDx=0;entryDy=0;" edge="1" parent="1" source="48PQxRek5Wm6yvdUXE-k-26" target="48PQxRek5Wm6yvdUXE-k-14">
          <mxGeometry relative="1" as="geometry" />
        </mxCell>
        <mxCell id="48PQxRek5Wm6yvdUXE-k-28" style="edgeStyle=orthogonalEdgeStyle;rounded=0;orthogonalLoop=1;jettySize=auto;html=1;entryX=1;entryY=0.5;entryDx=0;entryDy=0;" edge="1" parent="1" source="48PQxRek5Wm6yvdUXE-k-26" target="48PQxRek5Wm6yvdUXE-k-15">
          <mxGeometry relative="1" as="geometry" />
        </mxCell>
        <mxCell id="48PQxRek5Wm6yvdUXE-k-26" value="Cidadão" style="shape=umlActor;verticalLabelPosition=bottom;verticalAlign=top;html=1;outlineConnect=0;" vertex="1" parent="1">
          <mxGeometry x="700" y="820" width="30" height="60" as="geometry" />
        </mxCell>
        <mxCell id="48PQxRek5Wm6yvdUXE-k-33" style="edgeStyle=orthogonalEdgeStyle;rounded=0;orthogonalLoop=1;jettySize=auto;html=1;entryX=1;entryY=0.5;entryDx=0;entryDy=0;" edge="1" parent="1" source="48PQxRek5Wm6yvdUXE-k-32" target="48PQxRek5Wm6yvdUXE-k-2">
          <mxGeometry relative="1" as="geometry" />
        </mxCell>
        <mxCell id="48PQxRek5Wm6yvdUXE-k-34" style="edgeStyle=orthogonalEdgeStyle;rounded=0;orthogonalLoop=1;jettySize=auto;html=1;entryX=1;entryY=0.5;entryDx=0;entryDy=0;" edge="1" parent="1" source="48PQxRek5Wm6yvdUXE-k-32" target="48PQxRek5Wm6yvdUXE-k-4">
          <mxGeometry relative="1" as="geometry" />
        </mxCell>
        <mxCell id="48PQxRek5Wm6yvdUXE-k-35" style="edgeStyle=orthogonalEdgeStyle;rounded=0;orthogonalLoop=1;jettySize=auto;html=1;entryX=1;entryY=0.5;entryDx=0;entryDy=0;" edge="1" parent="1" source="48PQxRek5Wm6yvdUXE-k-32" target="48PQxRek5Wm6yvdUXE-k-5">
          <mxGeometry relative="1" as="geometry" />
        </mxCell>
        <mxCell id="48PQxRek5Wm6yvdUXE-k-36" style="edgeStyle=orthogonalEdgeStyle;rounded=0;orthogonalLoop=1;jettySize=auto;html=1;entryX=1;entryY=0.5;entryDx=0;entryDy=0;" edge="1" parent="1" source="48PQxRek5Wm6yvdUXE-k-32" target="48PQxRek5Wm6yvdUXE-k-8">
          <mxGeometry relative="1" as="geometry" />
        </mxCell>
        <mxCell id="48PQxRek5Wm6yvdUXE-k-37" style="edgeStyle=orthogonalEdgeStyle;rounded=0;orthogonalLoop=1;jettySize=auto;html=1;entryX=1;entryY=0.5;entryDx=0;entryDy=0;" edge="1" parent="1" source="48PQxRek5Wm6yvdUXE-k-32" target="48PQxRek5Wm6yvdUXE-k-7">
          <mxGeometry relative="1" as="geometry" />
        </mxCell>
        <mxCell id="48PQxRek5Wm6yvdUXE-k-38" style="edgeStyle=orthogonalEdgeStyle;rounded=0;orthogonalLoop=1;jettySize=auto;html=1;entryX=1;entryY=0.5;entryDx=0;entryDy=0;" edge="1" parent="1" source="48PQxRek5Wm6yvdUXE-k-32" target="48PQxRek5Wm6yvdUXE-k-6">
          <mxGeometry relative="1" as="geometry" />
        </mxCell>
        <mxCell id="48PQxRek5Wm6yvdUXE-k-32" value="Modelo (Sistema)" style="shape=umlActor;verticalLabelPosition=bottom;verticalAlign=top;html=1;outlineConnect=0;" vertex="1" parent="1">
          <mxGeometry x="700" y="480" width="30" height="60" as="geometry" />
        </mxCell>
        <mxCell id="48PQxRek5Wm6yvdUXE-k-41" style="edgeStyle=orthogonalEdgeStyle;rounded=0;orthogonalLoop=1;jettySize=auto;html=1;entryX=0;entryY=0.5;entryDx=0;entryDy=0;" edge="1" parent="1" source="48PQxRek5Wm6yvdUXE-k-39" target="48PQxRek5Wm6yvdUXE-k-15">
          <mxGeometry relative="1" as="geometry" />
        </mxCell>
        <mxCell id="48PQxRek5Wm6yvdUXE-k-39" value="Aplicativo" style="shape=umlActor;verticalLabelPosition=bottom;verticalAlign=top;html=1;outlineConnect=0;" vertex="1" parent="1">
          <mxGeometry x="90" y="832" width="30" height="60" as="geometry" />
        </mxCell>
        <mxCell id="48PQxRek5Wm6yvdUXE-k-40" style="edgeStyle=orthogonalEdgeStyle;rounded=0;orthogonalLoop=1;jettySize=auto;html=1;entryX=0;entryY=0.4;entryDx=0;entryDy=0;entryPerimeter=0;" edge="1" parent="1" source="48PQxRek5Wm6yvdUXE-k-39" target="48PQxRek5Wm6yvdUXE-k-14">
          <mxGeometry relative="1" as="geometry" />
        </mxCell>
      </root>
    </mxGraphModel>
  </diagram>
</mxfile>
